<svg version="1.2" xmlns="http://www.w3.org/2000/svg" viewBox="0 0 32 32" width="32" height="32"><defs><linearGradient id="P" gradientUnits="userSpaceOnUse"/><linearGradient id="g1" x2="1" href="#P" gradientTransform="matrix(8.917,-12.735,12.903,9.035,10.813,22.534)"><stop stop-color="#26598f"/><stop offset=".01" stop-color="#26598f"/><stop offset="1" stop-color="#49829e"/></linearGradient></defs><style>.a{fill:url(#g1)}</style><path fill-rule="evenodd" class="a" d="m14.8 0.6c0 0 0.2 0 0.6 0.1 0.3 0 0.7 0 0.7 0.5 0 0.5-0.1 2.9 0.2 3.7 0.3 0.8 1.5 3.3 1.7 5.3 0.2 1.3-0.1 2.5-1 4.1-0.8 1.5-0.7 2.9-0.5 3.4 0.2 0.6 0.7 1.8 0.7 1.8l-0.3 0.5c0 0 1.3 0.2 1.9-0.1 0.7-0.3 1.3-1 2.4-1.3 1.1-0.4 2.7 0.1 3.5 1.5 0.8 1.4 1.2 3.3 0.1 5.3-1 2-2.4 3.4-4.7 4.1-2.4 0.6-4.3 0.4-5.3-0.1-1-0.5-2.3-1.5-3.3-1-1 0.6-1.6 1.3-1.6 2 0 0.8 0.1 1.3 0.1 1.3 0 0-1.5-0.5-1.4-1.5 0.1-1 0.5-2.2 0.8-2.7 0.5-0.7 1.5-1.3 2.7-1.1 1.2 0.1 2.3 0.2 3 0.1 1-0.2 1.8-1 1.8-1.9-0.1-0.8-0.5-2.3-1-3.1-0.4-0.9-1.4-2.8-1.3-3.8 0.1-1 0.6-2.3 0.9-3.1 0.3-0.7 1-1.9 1-3 0-1-0.4-3.1-0.9-4.3-0.6-1.3-0.9-3-0.9-4.1-0.1-1.2 0-2.2 0-2.2zm6.1 1.1c2.8 0.7 5.6 3 6.6 4 1 1.1 0.8 1.3 0.8 1.3 0.1-0.2-1.7-1.8-2.8-2.5-0.9-0.6-1.7-1.1-3.9-1.8-2-0.7-4.5-0.7-4.5-0.7v-0.8c0 0 1.5-0.1 3.8 0.5zm-12.2 1.1c1.3-0.7 3.2-1.1 3.4-1.1 0.4 0 0.2 0.4 0.1 0.5-0.2 0.2-1.7 0.5-2.7 1-1.3 0.7-3.6 2.4-5 4.1-1.3 1.7-2.6 4.3-2.7 7.7-0.3 5.8 4.1 10.7 5.2 11.5l-0.1 1.2c0 0-2.9-2.5-4.2-4.8-1.2-2.3-2.3-4.4-2.2-7.8 0-3.5 1.2-5.8 2.5-7.6 1.6-2.4 3.8-3.7 5.7-4.7zm1.1 6.6l-0.2 1.7h-5.5l0.9-1.9zm-0.4 2.6l0.3 1.6h-6.3l0.4-1.6zm0.7 2.6l0.7 1.7h-7.6l-0.1-1.7zm1.5 2.6l1 1.7h-8.8l-0.5-1.7zm1.5 2.7l0.5 1.6h-8.8l-0.7-1.6zm0.8 2.5l0.1 1.8-7.2 0.1-1.5-1.9zm-3.7 3.9c0 0-1.2-0.2-1.6 0.3-0.6 0.7-0.1 1.7-0.1 1.7l-0.4 0.5c0 0-0.9-1.4 0-2.5 1.1-1.2 2.8-0.4 2.8-0.4zm19.8-1.5c-0.2 0.3-2.6 3.9-5.9 5.2-2.6 1.1-3.4 1.2-4.2 1.3-1.9 0.6-3.5 0.4-4.6 0.2-2.2-0.3-3.5-1.1-3.9-1.2-0.3-0.1-0.3-0.1-0.1-0.3 0.2-0.1 0.3-0.1 0.7-0.3 0.3-0.3 0.6 0 0.8 0.2 0.2 0.1 0.3 0.1 0.3 0.1 0 0 0 0.1 0.3 0.2 0.3 0.1 0.9 0.3 2 0.6 1.4 0.4 4.5 0.2 6.7-0.8 2.1-1 3-2.6 3.3-3.1 0.4-0.4 0.4-0.7 0.4-0.4-0.1 0.4-0.1 0.6-1.3 2-0.9 1-1.7 1.6-2.6 2 1-0.3 2.3-0.7 3.6-1.6 1.6-1.1 2.4-1.9 3-2.6 0.5-0.6 1.1-1.3 1.3-1.7 0.2-0.3 0.4-0.2 0.2 0.2zm-15.7 0.9c0 0 0.6-0.6 0.6-1.8 0-1.1-0.5-3.2-1.1-4.7-0.6-1.4-2.6-3.9-3-5.4-0.4-1.6-0.6-3.4 0.4-5.1 1.1-1.6 2.2-3.6 2.2-5.1 0.1-1.5 0.2-2.8 0.2-2.8l0.8-0.1-0.2 0.3c0 0 0 1.1-0.1 2.1-0.2 1-0.3 2.4-0.5 3-0.2 0.6-0.4 1-0.4 1 0 0 0.9 0.1 1.2 0.1 0.3 0.1 0.7 0.2 0 0.3-0.7 0.1-1.5 0.2-1.5 0.2l-0.3 0.8c0 0 1.3 0 1.7 0 0.5 0 1.6 0.4 0.5 0.4-1.1-0.1-2.5 0-2.5 0l-0.4 1c0 0 2.3 0.1 2.9 0.1 0.6 0.1 0.9 0.3 0.1 0.3-0.8 0.1-3.2 0.2-3.2 0.2l-0.1 1c0 0 2.5 0.1 3.1 0.1 0.6 0 1.3 0.2 0.3 0.3-1 0-3.5 0.2-3.5 0.2l0.1 0.8c0 0 2.9 0.1 3.2 0.1 0.3 0.1 1.3 0.2 0 0.3-1.1 0.1-3.1 0.2-3.1 0.2l0.3 1c0 0 2.1 0 2.3 0 0.3 0 0.7 0.2 0.1 0.3-0.5 0-2.2 0.1-2.2 0.1l0.5 0.9c0 0 0.8 0 1.1 0 0.3 0 0.6 0.3 0 0.3-0.6 0.1-0.8 0.2-0.8 0.2 0 0 0.6 0.7 0.8 0.8 0.2 0.2 0.1 0.2 0.1 0.4 0 0.2 0.2 1.5 0.5 2.4 0.4 0.9 1.3 2.2 1.4 3 0.1 0.9 0.2 2-0.3 2.4-0.5 0.4-1.2 0.4-1.2 0.4zm1.8-9.1c0-0.1-0.3-0.3-0.6-0.3-0.3 0-0.6 0.2-0.6 0.3 0 0.2 0.3 0.3 0.6 0.3 0.3 0 0.6-0.1 0.6-0.3zm0.2 1.3c0-0.2-0.3-0.3-0.7-0.3-0.5 0-0.8 0.1-0.8 0.3 0 0.1 0.3 0.2 0.8 0.2 0.4 0 0.7-0.1 0.7-0.2zm0.2 1.2c0-0.1-0.3-0.2-0.7-0.2-0.4 0-0.7 0.1-0.7 0.2 0 0.1 0.3 0.2 0.7 0.2 0.4 0 0.7-0.1 0.7-0.2zm0.4 1c0-0.1-0.3-0.2-0.7-0.2-0.4 0-0.7 0.1-0.7 0.2 0 0.2 0.3 0.3 0.7 0.3 0.4 0 0.7-0.1 0.7-0.3zm0.3 1c0-0.1-0.3-0.2-0.6-0.2-0.3 0-0.5 0.1-0.5 0.2 0 0.2 0.2 0.3 0.5 0.3 0.3 0 0.6-0.1 0.6-0.3zm3.4 0.5c0-0.1-0.1-0.2-0.2-0.2-0.2 0-0.3 0.1-0.3 0.2 0 0.2 0.1 0.3 0.3 0.3 0.1 0 0.2-0.1 0.2-0.3zm-6.6-15.6c0.3 0.1 0.4 0.5 0.1 0.5-0.4 0-0.5-0.5-0.1-0.5z"/></svg>