<svg version="1.2" xmlns="http://www.w3.org/2000/svg" viewBox="0 0 18 18" width="18" height="18">
	<defs>
		<clipPath clipPathUnits="userSpaceOnUse" id="cp1">
			<path d="m0 0h18v18h-18z"/>
		</clipPath>
	</defs>
	<style>
		.s0 { fill: none;stroke: #00708a;stroke-linecap: round;stroke-linejoin: round;stroke-width: 1.5 } 
	</style>
	<g id="Clip-Path" clip-path="url(#cp1)">
		<g>
			<path class="s0" d="m16.35 7.5c0.34 1.68 0.1 3.43-0.69 4.95-0.79 1.52-2.08 2.73-3.65 3.42-1.57 0.69-3.33 0.81-4.99 0.36-1.65-0.45-3.1-1.46-4.1-2.85-1.01-1.39-1.5-3.08-1.41-4.8 0.1-1.71 0.78-3.34 1.93-4.61 1.15-1.27 2.7-2.11 4.39-2.38 1.7-0.27 3.43 0.05 4.92 0.91"/>
			<path class="s0" d="m6.75 8.25l2.25 2.25 7.5-7.5"/>
		</g>
	</g>
</svg>