<svg version="1.2" xmlns="http://www.w3.org/2000/svg" viewBox="0 0 48 48" width="48" height="48"><style>.a{fill:#4e9ed3}.b{fill:#002a55}</style>

<path class="a" d="m24 24c-4.7 0-8.5 3.8-8.5 8.5 0 5.6 7.8 14.9 8.1 15.3q0.2 0.2 0.4 0.2 0.2 0 0.4-0.2c0.3-0.4 8.1-9.5 8.1-15.3 0-4.7-3.8-8.5-8.5-8.5z"/>

<path class="b" d="m24 24c-4.7 0-8.5 3.8-8.5 8.5 0 5.6 7.8 14.9 8.1 15.3q0.2 0.2 0.4 0.2 0.2 0 0.4-0.2c0.3-0.4 8.1-9.5 8.1-15.3 0-4.7-3.8-8.5-8.5-8.5zm0 22.7c-1.6-1.9-7.5-9.6-7.5-14.2 0-4.2 3.4-7.5 7.5-7.5 4.1 0 7.5 3.3 7.5 7.5 0 4.8-5.9 12.3-7.5 14.2z"/>

<path fill-rule="evenodd" class="b" d="m24 35.9c-2 0-3.6-1.6-3.6-3.6 0-2 1.6-3.6 3.6-3.6 2 0 3.6 1.6 3.6 3.6 0 2-1.6 3.6-3.6 3.6z"/>

</svg>