<svg version="1.2" xmlns="http://www.w3.org/2000/svg" viewBox="0 0 48 48" width="48" height="48">
	<style>
		.s0 { fill: #4e9ed3 } 
		.s1 { fill: #002a55 } 
	</style>
	<g>
		<path class="s0" d="m23.97 0c-9.32 0-16.91 7.59-16.91 16.91 0 11.35 15.5 29.9 16.16 30.68 0.19 0.22 0.46 0.35 0.75 0.35q0 0 0 0c0.29 0 0.56-0.12 0.74-0.34 0.66-0.77 16.17-19.01 16.17-30.69 0-9.32-7.58-16.91-16.91-16.91z"/>
		<path id="Layer copy" class="s1" d="m23.97 0c-9.32 0-16.91 7.59-16.91 16.91 0 11.35 15.5 29.9 16.16 30.68 0.19 0.22 0.46 0.35 0.75 0.35q0 0 0 0c0.29 0 0.56-0.12 0.74-0.34 0.66-0.77 16.17-19.01 16.17-30.69 0-9.32-7.58-16.91-16.91-16.91zm0.01 45.43c-3.12-3.87-14.97-19.22-14.97-28.52 0-8.25 6.71-14.96 14.96-14.96 8.25 0 14.96 6.71 14.96 14.96 0 9.56-11.83 24.69-14.95 28.52z"/>
		<path id="Layer copy 2" class="s1" d="m23.97 9.4c-3.96 0-7.19 3.23-7.19 7.19 0 3.97 3.23 7.19 7.19 7.19 3.97 0 7.19-3.22 7.19-7.19 0-3.96-3.22-7.19-7.19-7.19z"/>
	</g>
</svg>